<svg xmlns="http://www.w3.org/2000/svg" version="1.1" xmlns:xlink="http://www.w3.org/1999/xlink" xmlns:svgjs="http://svgjs.com/svgjs" width="512" height="512" x="0" y="0" viewBox="0 0 511.998 511.998" style="enable-background:new 0 0 512 512" xml:space="preserve" class=""><g><path d="M419.381 199.229c-26.651-12.378-51.541-12.674-74.177-7.186 18.441-21.827 29.058-50.472 27.396-81.642C369.438 51 320.017 2.36 260.58.087c-66.578-2.542-121.353 50.67-121.353 116.682 0 28.699 10.393 54.937 27.567 75.273-22.636-5.488-47.526-5.192-74.177 7.186-41.023 19.061-69.569 59.401-70.153 104.628-.835 65.204 51.757 118.317 116.763 118.317 31.412 0 59.859-12.459 80.842-32.633v34.403a94.758 94.758 0 0 1-12.495 47.041l-15.755 27.576c-3.422 5.991.907 13.438 7.797 13.438h112.766c6.899 0 11.219-7.446 7.797-13.438l-15.755-27.576a94.852 94.852 0 0 1-12.495-47.041V389.54c20.992 20.175 49.439 32.633 80.842 32.633 65.006 0 117.607-53.113 116.763-118.317-.584-45.227-29.131-85.567-70.153-104.627" fill="#000000" data-original="#000000" class=""></path><path d="M423.915 355.877c-13.621 13.805-31.752 21.385-51.142 21.385a8.982 8.982 0 0 0 0 17.964c24.196 0 46.934-9.506 63.927-26.729 16.991-17.2 26.197-40.066 25.888-64.288a8.983 8.983 0 0 0-17.963.229c.247 19.421-7.096 37.657-20.71 51.439z" style="" fill="#2a2d33" data-original="#2a2d33" class=""></path></g></svg>