<svg xmlns="http://www.w3.org/2000/svg" version="1.1" xmlns:xlink="http://www.w3.org/1999/xlink" xmlns:svgjs="http://svgjs.com/svgjs" width="512" height="512" x="0" y="0" viewBox="0 0 511.883 511.883" style="enable-background:new 0 0 512 512" xml:space="preserve" class=""><g><path d="m511.883 148.305-126.977 45.249 7.559 15.117c10.759 21.546.39 48.153-27.466 55.898-.352.117-38.936 10.474-50.654-24.624l-11.294-33.926 32.139-32.153-79.307-118.945-79.307 118.945 32.139 32.153-11.294 33.926c-7.31 21.899-22.998 29.282-50.801 23.994-3.036-1.479-18.891-2.166-27.861-21.694-4.951-10.752-4.746-22.983.542-33.574l7.544-15.103L0 148.29l56.593 218.672h133.079l66.211-66.211 66.211 66.211h133.109z" fill="#ff0000" data-original="#000000" class=""></path><path d="m217.031 381.949 38.783-38.783 38.784 38.783-38.784 38.783zM189.672 396.962H60.883v60h188.789zM450.883 396.962H322.094l-60 60h188.789z" fill="#ff0000" data-original="#000000" class=""></path></g></svg>