<svg xmlns="http://www.w3.org/2000/svg" version="1.1" xmlns:xlink="http://www.w3.org/1999/xlink" xmlns:svgjs="http://svgjs.com/svgjs" width="512" height="512" x="0" y="0" viewBox="0 0 511.96 511.96" style="enable-background:new 0 0 512 512" xml:space="preserve" class=""><g><path d="M302.728 390.351c16.49 15.934 26.368 25.759 55.905 24.541 43.494-1.783 83.871-25.459 106.364-62.729 38.78-64.247 17.576-128.53-23.702-166.824L272.705 6.528c-9.507-8.704-24.082-8.704-33.589 0L68.073 185.34c-40.13 37.226-57.256 99.037-23.729 161.483 21.283 39.645 61.767 66.357 106.726 68.087 29.281 1.121 40.801-8.66 57.759-24.488 4.458-4.167 11.767-1.033 11.767 5.076l.009 29.987a92.966 92.966 0 0 1-12.253 46.115l-15.519 27.154c-3.354 5.888.892 13.206 7.671 13.206h110.813c6.78 0 11.034-7.318 7.671-13.206L303.469 471.6a92.97 92.97 0 0 1-12.244-46.115v-30.296c.001-5.976 7.204-8.987 11.503-4.838" fill="#000000" data-original="#000000"></path><path d="M427.21 329.362c-8.701 14.419-21.869 26.091-37.482 33.362-10.397 4.841-21.597 7.606-32.91 8.072a8.829 8.829 0 0 0 .727 17.641c13.661-.563 27.144-3.891 39.635-9.707 18.759-8.735 34.611-22.785 45.145-40.244 19.021-31.51 20.189-64.061 7.087-94.822a8.828 8.828 0 0 0-16.243 6.919c10.962 25.733 10.008 52.328-5.959 78.779z" style="" fill="#2a2d33" data-original="#2a2d33"></path></g></svg>