<svg xmlns="http://www.w3.org/2000/svg" version="1.1" xmlns:xlink="http://www.w3.org/1999/xlink" xmlns:svgjs="http://svgjs.com/svgjs" width="512" height="512" x="0" y="0" viewBox="0 0 43.349 43.349" style="enable-background:new 0 0 512 512" xml:space="preserve" class=""><g><path d="M3.203 37.113 0 40.317l1.595 1.595L4.8 38.709zM19.287 21.03 5.88 34.436l1.595 1.595 13.408-13.408zM23.019 20.489l-1.596-1.596-.714-.714-1.596 1.595.715.714 1.595 1.596.715.714 1.595-1.595zM6.934 36.573 5.34 34.977l-.714-.714-1.596 1.595.715.715 1.595 1.595.715.715 1.595-1.596zM25.228 15.088l-3.264 3.265 1.595 1.595 3.265-3.264zM28.96 14.548l-1.596-1.596-.714-.714-1.595 1.595.714.715 1.595 1.595.715.715 1.595-1.596zM33.59 9.917l-1.595-1.595-2.934 2.933-1.156 1.157 1.595 1.595 1.157-1.156zM31.454 7.781l-1.927-1.927-2.933 2.933 1.927 1.928zM41.377 7.892c-1.391 7.865-5.488 4.324-5.488 4.324l-1.758-1.758-2.934 2.933 1.759 1.759s3.54 4.096-4.324 5.487c8.095 6.553 19.298-4.65 12.745-12.745zM36.68 7.563c6.02-6.94 4.608-8.35-2.332-2.33.49 2.039-.806 1.541-1.198 1.933l-.615.615 1.596 1.596.622-.623c.377-.377-.112-1.68 1.927-1.19z" fill="#000000" data-original="#000000" class=""></path></g></svg>