<svg width="0" height="0" class="hidden">
  <symbol xmlns="http://www.w3.org/2000/svg" version="1.1" xmlns:xlink="http://www.w3.org/1999/xlink" xmlnsSvgjs="http://svgjs.com/svgjs" x="0" y="0" xml:space="preserve" viewBox="0 0 511.998 511.998" id="clubs">
    <g>
      <path d="M419.381 199.229c-26.651-12.378-51.541-12.674-74.177-7.186 18.441-21.827 29.058-50.472 27.396-81.642C369.438 51 320.017 2.36 260.58.087c-66.578-2.542-121.353 50.67-121.353 116.682 0 28.699 10.393 54.937 27.567 75.273-22.636-5.488-47.526-5.192-74.177 7.186-41.023 19.061-69.569 59.401-70.153 104.628-.835 65.204 51.757 118.317 116.763 118.317 31.412 0 59.859-12.459 80.842-32.633v34.403a94.758 94.758 0 0 1-12.495 47.041l-15.755 27.576c-3.422 5.991.907 13.438 7.797 13.438h112.766c6.899 0 11.219-7.446 7.797-13.438l-15.755-27.576a94.852 94.852 0 0 1-12.495-47.041V389.54c20.992 20.175 49.439 32.633 80.842 32.633 65.006 0 117.607-53.113 116.763-118.317-.584-45.227-29.131-85.567-70.153-104.627" fill="#000000" data-original="#000000"></path>
      <path d="M423.915 355.877c-13.621 13.805-31.752 21.385-51.142 21.385a8.982 8.982 0 0 0 0 17.964c24.196 0 46.934-9.506 63.927-26.729 16.991-17.2 26.197-40.066 25.888-64.288a8.983 8.983 0 0 0-17.963.229c.247 19.421-7.096 37.657-20.71 51.439z" fill="#2a2d33" data-original="#2a2d33"></path>
    </g>
  </symbol>
  <symbol xmlns="http://www.w3.org/2000/svg" version="1.1" xmlns:xlink="http://www.w3.org/1999/xlink" xmlnsSvgjs="http://svgjs.com/svgjs" x="0" y="0" xml:space="preserve" viewBox="0 0 511.483 511.483" id="diamonds">
    <g>
      <path d="M443.667 242.939 273 8.272c-8.043-11.029-26.475-11.029-34.517 0L67.816 242.939a21.39 21.39 0 0 0 0 25.088l170.667 234.667c4.032 5.525 10.432 8.789 17.259 8.789s13.227-3.264 17.259-8.789l170.667-234.667a21.395 21.395 0 0 0-.001-25.088z" fill="#ff0000" data-original="#000000"></path>
    </g>
  </symbol>
  <symbol xmlns="http://www.w3.org/2000/svg" version="1.1" xmlns:xlink="http://www.w3.org/1999/xlink" xmlnsSvgjs="http://svgjs.com/svgjs" x="0" y="0" xml:space="preserve" viewBox="0 0 511.883 511.883" id="krown">
    <g>
      <path d="m511.883 148.305-126.977 45.249 7.559 15.117c10.759 21.546.39 48.153-27.466 55.898-.352.117-38.936 10.474-50.654-24.624l-11.294-33.926 32.139-32.153-79.307-118.945-79.307 118.945 32.139 32.153-11.294 33.926c-7.31 21.899-22.998 29.282-50.801 23.994-3.036-1.479-18.891-2.166-27.861-21.694-4.951-10.752-4.746-22.983.542-33.574l7.544-15.103L0 148.29l56.593 218.672h133.079l66.211-66.211 66.211 66.211h133.109z" fill="#ff0000" data-original="#000000"></path>
      <path d="m217.031 381.949 38.783-38.783 38.784 38.783-38.784 38.783zM189.672 396.962H60.883v60h188.789zM450.883 396.962H322.094l-60 60h188.789z" fill="#ff0000" data-original="#000000"></path>
    </g>
  </symbol>
  <symbol xmlns="http://www.w3.org/2000/svg" version="1.1" xmlns:xlink="http://www.w3.org/1999/xlink" xmlnsSvgjs="http://svgjs.com/svgjs" x="0" y="0" xml:space="preserve" viewBox="0 0 511.96 511.96" id="spades">
    <g>
      <path d="M302.728 390.351c16.49 15.934 26.368 25.759 55.905 24.541 43.494-1.783 83.871-25.459 106.364-62.729 38.78-64.247 17.576-128.53-23.702-166.824L272.705 6.528c-9.507-8.704-24.082-8.704-33.589 0L68.073 185.34c-40.13 37.226-57.256 99.037-23.729 161.483 21.283 39.645 61.767 66.357 106.726 68.087 29.281 1.121 40.801-8.66 57.759-24.488 4.458-4.167 11.767-1.033 11.767 5.076l.009 29.987a92.966 92.966 0 0 1-12.253 46.115l-15.519 27.154c-3.354 5.888.892 13.206 7.671 13.206h110.813c6.78 0 11.034-7.318 7.671-13.206L303.469 471.6a92.97 92.97 0 0 1-12.244-46.115v-30.296c.001-5.976 7.204-8.987 11.503-4.838" fill="#000000" data-original="#000000"></path>
      <path d="M427.21 329.362c-8.701 14.419-21.869 26.091-37.482 33.362-10.397 4.841-21.597 7.606-32.91 8.072a8.829 8.829 0 0 0 .727 17.641c13.661-.563 27.144-3.891 39.635-9.707 18.759-8.735 34.611-22.785 45.145-40.244 19.021-31.51 20.189-64.061 7.087-94.822a8.828 8.828 0 0 0-16.243 6.919c10.962 25.733 10.008 52.328-5.959 78.779z" fill="#2a2d33" data-original="#2a2d33"></path>
    </g>
  </symbol>
  <symbol xmlns="http://www.w3.org/2000/svg" version="1.1" xmlns:xlink="http://www.w3.org/1999/xlink" xmlnsSvgjs="http://svgjs.com/svgjs" x="0" y="0" xml:space="preserve" viewBox="0 0 43.349 43.349" id="spear">
    <g>
      <path d="M3.203 37.113 0 40.317l1.595 1.595L4.8 38.709zM19.287 21.03 5.88 34.436l1.595 1.595 13.408-13.408zM23.019 20.489l-1.596-1.596-.714-.714-1.596 1.595.715.714 1.595 1.596.715.714 1.595-1.595zM6.934 36.573 5.34 34.977l-.714-.714-1.596 1.595.715.715 1.595 1.595.715.715 1.595-1.596zM25.228 15.088l-3.264 3.265 1.595 1.595 3.265-3.264zM28.96 14.548l-1.596-1.596-.714-.714-1.595 1.595.714.715 1.595 1.595.715.715 1.595-1.596zM33.59 9.917l-1.595-1.595-2.934 2.933-1.156 1.157 1.595 1.595 1.157-1.156zM31.454 7.781l-1.927-1.927-2.933 2.933 1.927 1.928zM41.377 7.892c-1.391 7.865-5.488 4.324-5.488 4.324l-1.758-1.758-2.934 2.933 1.759 1.759s3.54 4.096-4.324 5.487c8.095 6.553 19.298-4.65 12.745-12.745zM36.68 7.563c6.02-6.94 4.608-8.35-2.332-2.33.49 2.039-.806 1.541-1.198 1.933l-.615.615 1.596 1.596.622-.623c.377-.377-.112-1.68 1.927-1.19z" fill="#000000" data-original="#000000"></path>
    </g>
  </symbol>
</svg>